<mxfile host="app.diagrams.net" modified="2023-10-09T06:51:24.061Z" agent="Mozilla/5.0 (Windows NT 10.0; Win64; x64) AppleWebKit/537.36 (KHTML, like Gecko) Chrome/117.0.0.0 Safari/537.36" version="22.0.4" etag="YtDJAjIB3xv4bwd6Ijxd" type="github">
  <diagram name="PÃ¡gina-1" id="HCnr4QrBr8pXMR9z24At">
    <mxGraphModel>
      <root>
        <mxCell id="0" />
        <mxCell id="1" parent="0" />
      </root>
    </mxGraphModel>
  </diagram>
</mxfile>
